# xmcd
#
# Track frame offsets:
#	150
#	18181
#	36720
#	54034
#	73699
#	84634
#	103664
#	120190
#	138107
#	157151
#	180409
#	210232
#
# Disc length: 2943 seconds
# Revision: 0
# Processed by: cddbd v1.5.2PL0 Copyright (c) Steve Scherf et al.
# Submitted via: dBpowerAMP V12.0
#
DISCID=940b7d0c
DTITLE=Robin Zander - Countryside Blvd.
DYEAR=2011
DGENRE=
TTITLE0=Every Dog
TTITLE1=Walkin' Shoes
TTITLE2=The Ballad of Jean and Me
TTITLE3=Heart of Glass
TTITLE4=What's Her Name
TTITLE5=I Wonder What You're Doing Tonight
TTITLE6=Pamela Jean
TTITLE7=Say You Will
TTITLE8=Was I Wrong
TTITLE9=Love Comes
TTITLE10=Save The Last Dance For Me
TTITLE11=What's Her Name (Rock Mix)
EXTD=
EXTT0=
EXTT1=
EXTT2=
EXTT3=
EXTT4=
EXTT5=
EXTT6=
EXTT7=
EXTT8=
EXTT9=
EXTT10=
EXTT11=
PLAYORDER=
